<?xml version="1.0" encoding="utf-8"?>
<!-- Generated by Mocodo 4.2.12 -->
<svg width="458" height="229" viewBox="0 0 458 229" xmlns="http://www.w3.org/2000/svg">
<rect x="0" y="0" width="458" height="229" fill="#ffffbf" stroke="none" stroke-width="0"/>

<!-- Association JOUER -->
<g>
	<line x1="254" y1="51" x2="140" y2="51" stroke="#66bd63" stroke-width="2"/>
	<line x1="38" y1="51" x2="140" y2="51" stroke="#66bd63" stroke-width="2"/>
	<g>
		<path d="M149 26 a14 14 90 0 1 14 14 V51 h-46 V40 a14 14 90 0 1 14 -14" fill="#a6d96a" stroke="#a6d96a" stroke-width="0"/>
		<path d="M163 51 v11 a14 14 90 0 1 -14 14 H131 a14 14 90 0 1 -14 -14 V51 H46" fill="#d9ef8b" stroke="#d9ef8b" stroke-width="0"/>
		<rect x="117" y="26" width="46" height="50" fill="none" rx="14" stroke="#66bd63" stroke-width="2"/>
		<line x1="117" y1="51" x2="163" y2="51" stroke="#66bd63" stroke-width="1"/>
		<text x="124" y="43.75" fill="#000000" font-family="Verdana" font-size="12">jouer</text>
		<text x="124" y="68.8" fill="#000000" font-family="Verdana" font-size="12">date</text>
	</g>
	<text x="175" y="68" fill="#d73027" font-family="Verdana" font-size="12">0,N</text>
	<text x="72" y="68" fill="#d73027" font-family="Verdana" font-size="12">1,1</text>
</g>

<!-- Association AVOIR -->
<g>
	<line x1="38" y1="51" x2="38" y2="169" stroke="#66bd63" stroke-width="2"/>
	<line x1="140" y1="169" x2="38" y2="169" stroke="#66bd63" stroke-width="2"/>
	<g>
		<path d="M47 144 a14 14 90 0 1 14 14 V169 h-46 V158 a14 14 90 0 1 14 -14" fill="#a6d96a" stroke="#a6d96a" stroke-width="0"/>
		<path d="M61 169 v11 a14 14 90 0 1 -14 14 H29 a14 14 90 0 1 -14 -14 V169 H46" fill="#d9ef8b" stroke="#d9ef8b" stroke-width="0"/>
		<rect x="15" y="144" width="46" height="50" fill="none" rx="14" stroke="#66bd63" stroke-width="2"/>
		<line x1="15" y1="169" x2="61" y2="169" stroke="#66bd63" stroke-width="1"/>
		<text x="23" y="161.75" fill="#000000" font-family="Verdana" font-size="12">avoir</text>
	</g>
	<text x="43" y="102" fill="#d73027" font-family="Verdana" font-size="12">1,1</text>
	<text x="66" y="186" fill="#d73027" font-family="Verdana" font-size="12">0,N</text>
</g>

<!-- Association POSSEDER -->
<g>
	<line x1="140" y1="169" x2="254" y2="169" stroke="#66bd63" stroke-width="2"/>
	<line x1="385" y1="169" x2="254" y2="169" stroke="#66bd63" stroke-width="2"/>
	<g>
		<path d="M275 144 a14 14 90 0 1 14 14 V169 h-70 V158 a14 14 90 0 1 14 -14" fill="#a6d96a" stroke="#a6d96a" stroke-width="0"/>
		<path d="M289 169 v11 a14 14 90 0 1 -14 14 H233 a14 14 90 0 1 -14 -14 V169 H70" fill="#d9ef8b" stroke="#d9ef8b" stroke-width="0"/>
		<rect x="219" y="144" width="70" height="50" fill="none" rx="14" stroke="#66bd63" stroke-width="2"/>
		<line x1="219" y1="169" x2="289" y2="169" stroke="#66bd63" stroke-width="1"/>
		<text x="227" y="161.75" fill="#000000" font-family="Verdana" font-size="12">posseder</text>
	</g>
	<text x="192" y="186" fill="#d73027" font-family="Verdana" font-size="12">0,N</text>
	<text x="294" y="186" fill="#d73027" font-family="Verdana" font-size="12">1,N</text>
</g>

<!-- Entity PARTIE -->
<g>
	<g>
		<rect x="9" y="17" width="58" height="25" fill="#fdae61" stroke="none" stroke-width="0" opacity="1"/>
		<rect x="9" y="42" width="58" height="43" fill="#fee08b" stroke="none" stroke-width="0" opacity="1"/>
		<rect x="9" y="17" width="58" height="68" fill="none" stroke="#f46d43" stroke-width="2" opacity="1"/>
		<line x1="9" y1="42" x2="67" y2="42" stroke="#f46d43" stroke-width="1"/>
	</g>
	<text x="16" y="34.75" fill="#000000" font-family="Verdana" font-size="12">PARTIE</text>
	<text x="14" y="59.8" fill="#000000" font-family="Verdana" font-size="12">idpartie</text>
	<line x1="14" y1="62" x2="61" y2="62" stroke="#000000" stroke-width="1"/>
	<text x="14" y="76.8" fill="#000000" font-family="Verdana" font-size="12">score</text>
</g>

<!-- Entity JOUEUR -->
<g>
	<g>
		<rect x="202" y="9" width="104" height="25" fill="#fdae61" stroke="none" stroke-width="0" opacity="1"/>
		<rect x="202" y="34" width="104" height="59" fill="#fee08b" stroke="none" stroke-width="0" opacity="1"/>
		<rect x="202" y="9" width="104" height="84" fill="none" stroke="#f46d43" stroke-width="2" opacity="1"/>
		<line x1="202" y1="34" x2="306" y2="34" stroke="#f46d43" stroke-width="1"/>
	</g>
	<text x="230" y="26.75" fill="#000000" font-family="Verdana" font-size="12">JOUEUR</text>
	<text x="207" y="51.8" fill="#000000" font-family="Verdana" font-size="12">pseudojoueur</text>
	<line x1="207" y1="54" x2="290" y2="54" stroke="#000000" stroke-width="1"/>
	<text x="207" y="68.8" fill="#000000" font-family="Verdana" font-size="12">nom_joueur</text>
	<text x="207" y="85.8" fill="#000000" font-family="Verdana" font-size="12">prenom_joueur</text>
</g>

<!-- Entity QUIZ -->
<g>
	<g>
		<rect x="93" y="127" width="94" height="25" fill="#fdae61" stroke="none" stroke-width="0" opacity="1"/>
		<rect x="93" y="152" width="94" height="59" fill="#fee08b" stroke="none" stroke-width="0" opacity="1"/>
		<rect x="93" y="127" width="94" height="84" fill="none" stroke="#f46d43" stroke-width="2" opacity="1"/>
		<line x1="93" y1="152" x2="187" y2="152" stroke="#f46d43" stroke-width="1"/>
	</g>
	<text x="124" y="144.75" fill="#000000" font-family="Verdana" font-size="12">QUIZ</text>
	<text x="98" y="169.8" fill="#000000" font-family="Verdana" font-size="12">idquiz</text>
	<line x1="98" y1="172" x2="134" y2="172" stroke="#000000" stroke-width="1"/>
	<text x="98" y="186.8" fill="#000000" font-family="Verdana" font-size="12">nom_quiz</text>
	<text x="98" y="203.8" fill="#000000" font-family="Verdana" font-size="12">date_creation</text>
</g>

<!-- Entity QUESTION -->
<g>
	<g>
		<rect x="321" y="118" width="128" height="25" fill="#fdae61" stroke="none" stroke-width="0" opacity="1"/>
		<rect x="321" y="143" width="128" height="77" fill="#fee08b" stroke="none" stroke-width="0" opacity="1"/>
		<rect x="321" y="118" width="128" height="102" fill="none" stroke="#f46d43" stroke-width="2" opacity="1"/>
		<line x1="321" y1="143" x2="449" y2="143" stroke="#f46d43" stroke-width="1"/>
	</g>
	<text x="352" y="135.75" fill="#000000" font-family="Verdana" font-size="12">QUESTION</text>
	<text x="326" y="160.8" fill="#000000" font-family="Verdana" font-size="12">idquestion</text>
	<line x1="326" y1="163" x2="389" y2="163" stroke="#000000" stroke-width="1"/>
	<text x="326" y="177.8" fill="#000000" font-family="Verdana" font-size="12">titre_question</text>
	<text x="326" y="194.8" fill="#000000" font-family="Verdana" font-size="12">reponses_correctes</text>
	<text x="326" y="211.8" fill="#000000" font-family="Verdana" font-size="12">reponses_possibles</text>
</g>
</svg>